<?xml version="1.0" encoding="utf-8"?>
<!-- Generator: Adobe Illustrator 19.1.0, SVG Export Plug-In . SVG Version: 6.00 Build 0)  -->
<svg version="1.1" id="Layer_1" xmlns="http://www.w3.org/2000/svg" xmlns:xlink="http://www.w3.org/1999/xlink" x="0px" y="0px"
	 viewBox="0 0 25 25" style="enable-background:new 0 0 25 25;" xml:space="preserve">
<style type="text/css">
	.st0{fill:#000000;}
</style>
<g>
	<path class="st0" d="M12.5,24.8c-6.8,0-12.3-5.5-12.3-12.3S5.7,0.2,12.5,0.2c6.8,0,12.3,5.5,12.3,12.3S19.3,24.8,12.5,24.8z
		 M12.5,2.1C6.8,2.1,2.1,6.8,2.1,12.5c0,5.7,4.7,10.4,10.4,10.4s10.4-4.7,10.4-10.4C22.9,6.8,18.2,2.1,12.5,2.1z"/>
</g>
<g>
	<path class="st0" d="M11.2,7.7c0-0.7,0.6-1.3,1.3-1.3c0.7,0,1.3,0.6,1.3,1.3c0,0.7-0.6,1.3-1.3,1.3C11.8,9,11.2,8.4,11.2,7.7z
		 M11.5,10.1h2.1v8.4h-2.1V10.1z"/>
</g>
</svg>
